<svg xmlns="http://www.w3.org/2000/svg" width="192" height="192" viewBox="0 0 192 192">
  <rect width="192" height="192" rx="40" fill="#0F47AF"/>
  <rect x="20" y="20" width="152" height="152" rx="28" fill="#2B6FE0"/>
  <!-- Shield shape -->
  <path d="M96 38 L140 58 L140 100 C140 128 120 150 96 160 C72 150 52 128 52 100 L52 58 Z" fill="white" opacity="0.95"/>
  <!-- Cross -->
  <rect x="84" y="65" width="24" height="60" rx="4" fill="#2B6FE0"/>
  <rect x="72" y="83" width="48" height="24" rx="4" fill="#2B6FE0"/>
  <!-- Flag stripe at bottom -->
  <rect x="20" y="166" width="30" height="6" rx="3" fill="#0A0A0A"/>
  <rect x="52" y="166" width="30" height="6" rx="3" fill="#E52E42"/>
  <rect x="84" y="166" width="30" height="6" rx="3" fill="#10B944"/>
  <rect x="116" y="166" width="30" height="6" rx="3" fill="#FCD34D"/>
  <rect x="148" y="166" width="24" height="6" rx="3" fill="#2B6FE0"/>
</svg>
