<svg xmlns="http://www.w3.org/2000/svg" xmlns:xlink="http://www.w3.org/1999/xlink" width="2000" zoomAndPan="magnify" viewBox="0 0 1500 1499.999933" height="2000" preserveAspectRatio="xMidYMid meet" version="1.0"><defs><g/><clipPath id="2e3ba6b851"><path d="M 450 596 L 1352 596 L 1352 768.910156 L 450 768.910156 Z M 450 596 " clip-rule="nonzero"/></clipPath><clipPath id="c2934756a5"><rect x="0" width="403" y="0" height="674"/></clipPath><clipPath id="60981078e1"><rect x="0" width="394" y="0" height="671"/></clipPath><clipPath id="0aa6481ee2"><rect x="0" width="1017" y="0" height="94"/></clipPath><clipPath id="5d5f998bfa"><rect x="0" width="303" y="0" height="38"/></clipPath></defs><rect x="-150" width="1800" fill="#ffffff" y="-149.999993" height="1799.99992" fill-opacity="1"/><rect x="-150" width="1800" fill="#f4f1eb" y="-149.999993" height="1799.99992" fill-opacity="1"/><g clip-path="url(#2e3ba6b851)"><path fill="#000000" d="M 1097.414062 765.242188 C 1019.308594 751.9375 949.589844 708.96875 878.585938 676.347656 C 819.820312 646.160156 758.488281 620.074219 691.664062 620.40625 C 614.316406 623.195312 539.105469 661.203125 488.097656 718.660156 C 478.394531 726.972656 468.433594 754.402344 453.699219 747.304688 C 435.941406 726.148438 499.574219 665.804688 516.574219 653.023438 C 675.582031 536.011719 801.238281 626.253906 949.226562 702.890625 C 1011.648438 732.785156 1076.300781 767.640625 1147.628906 761.53125 C 1206.792969 757.851562 1266.351562 726.414062 1298.941406 676.449219 C 1305.945312 665.671875 1312.621094 654.601562 1318.472656 643.167969 C 1322.09375 632.261719 1331.660156 621.488281 1343.796875 628.386719 C 1356.097656 635.613281 1350.410156 650.167969 1343.304688 658.445312 C 1299.597656 728.8125 1218.371094 768.363281 1136.746094 768.363281 C 1123.59375 768.363281 1110.4375 767.34375 1097.414062 765.242188 Z M 1097.414062 765.242188 " fill-opacity="1" fill-rule="nonzero"/></g><g transform="matrix(1, 0, 0, 1, 374, 312)"><g clip-path="url(#c2934756a5)"><g fill="#000000" fill-opacity="1"><g transform="translate(0.698167, 478.839196)"><g><path d="M 182.109375 -465.9375 C 143.953125 -465.9375 110.757812 -460.257812 82.53125 -448.90625 C 54.3125 -437.550781 29.953125 -419.734375 9.453125 -395.453125 L 9.453125 -444.171875 C 33.421875 -456.160156 60.78125 -464.753906 91.53125 -469.953125 C 122.28125 -475.160156 157.835938 -477.765625 198.203125 -477.765625 C 239.191406 -477.441406 275.0625 -474.675781 305.8125 -469.46875 C 336.5625 -464.269531 363.921875 -455.679688 387.890625 -443.703125 L 387.890625 -394.984375 C 367.703125 -419.265625 343.414062 -437.082031 315.03125 -448.4375 C 286.65625 -459.789062 253.390625 -465.46875 215.234375 -465.46875 L 215.234375 -118.265625 C 215.234375 -102.492188 215.148438 -86.722656 214.984375 -70.953125 C 214.828125 -55.179688 215.773438 -40.988281 217.828125 -28.375 C 219.878906 -15.757812 224.054688 -6.300781 230.359375 0 L 166.984375 0 C 173.285156 -6.300781 177.460938 -15.757812 179.515625 -28.375 C 181.566406 -40.988281 182.507812 -55.179688 182.34375 -70.953125 C 182.1875 -86.722656 182.109375 -102.492188 182.109375 -118.265625 Z M 182.109375 -465.9375 "/></g></g></g></g></g><g transform="matrix(1, 0, 0, 1, 734, 432)"><g clip-path="url(#60981078e1)"><g fill="#000000" fill-opacity="1"><g transform="translate(3.94201, 475.57985)"><g><path d="M 28.859375 0 C 35.160156 -6.300781 39.335938 -15.757812 41.390625 -28.375 C 43.441406 -40.988281 44.382812 -55.179688 44.21875 -70.953125 C 44.0625 -86.722656 43.984375 -102.492188 43.984375 -118.265625 L 43.984375 -424.3125 C 43.984375 -424.9375 44.300781 -425.722656 44.9375 -426.671875 C 45.570312 -427.617188 46.675781 -428.09375 48.25 -428.09375 C 49.507812 -428.09375 50.613281 -427.695312 51.5625 -426.90625 C 52.507812 -426.125 53.140625 -425.414062 53.453125 -424.78125 C 55.972656 -421.3125 58.019531 -418.394531 59.59375 -416.03125 C 61.175781 -413.664062 63.070312 -410.90625 65.28125 -407.75 C 77.257812 -390.40625 90.894531 -373.453125 106.1875 -356.890625 C 121.488281 -340.335938 138.992188 -323.070312 158.703125 -305.09375 C 178.410156 -287.125 200.800781 -267.492188 225.875 -246.203125 C 250.945312 -224.921875 279.25 -200.878906 310.78125 -174.078125 C 331.28125 -156.734375 345.863281 -140.019531 354.53125 -123.9375 C 363.207031 -107.851562 367.546875 -92.554688 367.546875 -78.046875 C 367.546875 -62.597656 363.601562 -49.039062 355.71875 -37.375 C 347.832031 -25.707031 337.109375 -16.5625 323.546875 -9.9375 C 309.992188 -3.3125 294.703125 0 277.671875 0 Z M 77.109375 -12.296875 L 264.421875 -12.296875 C 283.347656 -12.296875 299.351562 -17.894531 312.4375 -29.09375 C 325.519531 -40.289062 332.0625 -56.925781 332.0625 -79 C 332.0625 -97.601562 326.859375 -115.65625 316.453125 -133.15625 C 306.046875 -150.65625 291.929688 -168.15625 274.109375 -185.65625 C 256.296875 -203.164062 236.351562 -221.300781 214.28125 -240.0625 C 192.207031 -258.820312 169.34375 -278.84375 145.6875 -300.125 C 122.039062 -321.414062 99.179688 -344.675781 77.109375 -369.90625 Z M 263 -473.03125 C 293.90625 -473.03125 316.609375 -467.035156 331.109375 -455.046875 C 345.617188 -443.066406 352.875 -427.144531 352.875 -407.28125 C 352.875 -390.25 349.800781 -374.003906 343.65625 -358.546875 C 337.507812 -343.097656 329.148438 -328.671875 318.578125 -315.265625 C 308.015625 -301.867188 296.269531 -289.890625 283.34375 -279.328125 C 270.414062 -268.765625 257.328125 -260.015625 244.078125 -253.078125 L 241.25 -256.390625 C 263.945312 -273.097656 280.65625 -290.28125 291.375 -307.9375 C 302.101562 -325.601562 309.046875 -342.867188 312.203125 -359.734375 C 315.359375 -376.609375 316.9375 -391.828125 316.9375 -405.390625 C 316.9375 -421.785156 311.8125 -435.1875 301.5625 -445.59375 C 291.3125 -456 276.410156 -461.203125 256.859375 -461.203125 L 157.046875 -461.203125 C 111.316406 -461.203125 76.148438 -458.519531 51.546875 -453.15625 C 26.953125 -447.800781 9.769531 -442.128906 0 -436.140625 L 0 -473.03125 Z M 263 -473.03125 "/></g></g></g></g></g><g transform="matrix(1, 0, 0, 1, 243, 995)"><g clip-path="url(#0aa6481ee2)"><g fill="#000000" fill-opacity="1"><g transform="translate(0.647005, 71.448146)"><g><path d="M 17.3125 0 L 17.3125 -1.125 C 18.644531 -1.53125 19.554688 -2.398438 20.046875 -3.734375 C 20.546875 -5.066406 20.796875 -7.503906 20.796875 -11.046875 L 20.796875 -59.5 L 16.53125 -59.5 C 12.644531 -59.5 9.6875 -58.890625 7.65625 -57.671875 C 5.625 -56.453125 3.851562 -54.273438 2.34375 -51.140625 L 1.390625 -51.328125 L 1.90625 -60.890625 L 46.703125 -60.890625 L 47.234375 -51.328125 L 46.28125 -51.140625 C 44.820312 -54.273438 43.078125 -56.453125 41.046875 -57.671875 C 39.023438 -58.890625 36.039062 -59.5 32.09375 -59.5 L 28.015625 -59.5 L 28.015625 -11.046875 C 28.015625 -7.503906 28.257812 -5.066406 28.75 -3.734375 C 29.238281 -2.398438 30.148438 -1.53125 31.484375 -1.125 L 31.484375 0 Z M 17.3125 0 "/></g></g></g><g fill="#000000" fill-opacity="1"><g transform="translate(51.967101, 71.448146)"><g><path d="M -1.484375 0 L -1.484375 -1.125 C -0.265625 -1.53125 0.921875 -2.328125 2.078125 -3.515625 C 3.242188 -4.710938 4.492188 -6.960938 5.828125 -10.265625 L 22.96875 -52.71875 C 23.488281 -54.101562 23.429688 -55.460938 22.796875 -56.796875 L 22 -58.625 L 28.53125 -61.578125 L 49.921875 -10.171875 C 51.253906 -6.929688 52.457031 -4.710938 53.53125 -3.515625 C 54.601562 -2.328125 55.609375 -1.53125 56.546875 -1.125 L 56.546875 0 L 43.0625 0 L 43.0625 -1.125 C 44.394531 -1.53125 44.941406 -2.328125 44.703125 -3.515625 C 44.472656 -4.710938 43.664062 -6.929688 42.28125 -10.171875 L 36.96875 -22.96875 L 12.4375 -22.96875 L 7.3125 -10.265625 C 5.101562 -4.753906 5.445312 -1.707031 8.34375 -1.125 L 8.34375 0 Z M 12.953125 -24.265625 L 36.453125 -24.265625 L 24.53125 -52.890625 Z M 12.953125 -24.265625 "/></g></g></g><g fill="#000000" fill-opacity="1"><g transform="translate(110.332853, 71.448146)"><g><path d="M 4.4375 0 L 4.4375 -1.125 C 5.769531 -1.53125 6.679688 -2.398438 7.171875 -3.734375 C 7.671875 -5.066406 7.921875 -7.503906 7.921875 -11.046875 L 7.921875 -49.84375 C 7.921875 -53.4375 7.671875 -55.882812 7.171875 -57.1875 C 6.679688 -58.5 5.769531 -59.359375 4.4375 -59.765625 L 4.4375 -60.890625 L 24.796875 -60.890625 C 31.515625 -60.890625 36.335938 -59.859375 39.265625 -57.796875 C 42.203125 -55.742188 43.671875 -52.945312 43.671875 -49.40625 C 43.671875 -46.445312 42.625 -43.75 40.53125 -41.3125 C 38.445312 -38.882812 34.910156 -37.203125 29.921875 -36.265625 C 34.679688 -36.035156 38.566406 -35.164062 41.578125 -33.65625 C 44.597656 -32.15625 46.832031 -30.210938 48.28125 -27.828125 C 49.726562 -25.453125 50.453125 -22.84375 50.453125 -20 C 50.503906 -17.570312 50.035156 -15.164062 49.046875 -12.78125 C 48.066406 -10.40625 46.472656 -8.257812 44.265625 -6.34375 C 42.066406 -4.4375 39.15625 -2.898438 35.53125 -1.734375 C 31.90625 -0.578125 27.457031 0 22.1875 0 Z M 15.046875 -8.875 C 15.046875 -5.738281 15.332031 -3.691406 15.90625 -2.734375 C 16.488281 -1.785156 17.710938 -1.3125 19.578125 -1.3125 L 22.96875 -1.3125 C 27.71875 -1.3125 31.515625 -2.019531 34.359375 -3.4375 C 37.203125 -4.851562 39.273438 -6.804688 40.578125 -9.296875 C 41.878906 -11.796875 42.53125 -14.640625 42.53125 -17.828125 C 42.53125 -21.191406 41.890625 -24.164062 40.609375 -26.75 C 39.335938 -29.332031 37.320312 -31.375 34.5625 -32.875 C 31.8125 -34.382812 28.265625 -35.140625 23.921875 -35.140625 L 15.046875 -35.140625 Z M 15.046875 -36.453125 L 23.140625 -36.453125 C 27.429688 -36.453125 30.601562 -37.550781 32.65625 -39.75 C 34.71875 -41.957031 35.75 -44.65625 35.75 -47.84375 C 35.75 -51.4375 34.515625 -54.289062 32.046875 -56.40625 C 29.585938 -58.519531 26.125 -59.578125 21.65625 -59.578125 L 15.046875 -59.578125 Z M 15.046875 -36.453125 "/></g></g></g><g fill="#000000" fill-opacity="1"><g transform="translate(166.176071, 71.448146)"><g><path d="M -1.484375 0 L -1.484375 -1.125 C -0.265625 -1.53125 0.921875 -2.328125 2.078125 -3.515625 C 3.242188 -4.710938 4.492188 -6.960938 5.828125 -10.265625 L 22.96875 -52.71875 C 23.488281 -54.101562 23.429688 -55.460938 22.796875 -56.796875 L 22 -58.625 L 28.53125 -61.578125 L 49.921875 -10.171875 C 51.253906 -6.929688 52.457031 -4.710938 53.53125 -3.515625 C 54.601562 -2.328125 55.609375 -1.53125 56.546875 -1.125 L 56.546875 0 L 43.0625 0 L 43.0625 -1.125 C 44.394531 -1.53125 44.941406 -2.328125 44.703125 -3.515625 C 44.472656 -4.710938 43.664062 -6.929688 42.28125 -10.171875 L 36.96875 -22.96875 L 12.4375 -22.96875 L 7.3125 -10.265625 C 5.101562 -4.753906 5.445312 -1.707031 8.34375 -1.125 L 8.34375 0 Z M 12.953125 -24.265625 L 36.453125 -24.265625 L 24.53125 -52.890625 Z M 12.953125 -24.265625 "/></g></g></g><g fill="#000000" fill-opacity="1"><g transform="translate(224.541822, 71.448146)"><g><path d="M 50.359375 0.703125 L 9.390625 -52.625 L 9.390625 -14.53125 C 9.390625 -11.21875 9.617188 -8.660156 10.078125 -6.859375 C 10.546875 -5.066406 11.226562 -3.75 12.125 -2.90625 C 13.03125 -2.070312 14.117188 -1.476562 15.390625 -1.125 L 15.390625 0 L 4.515625 0 L 4.515625 -1.125 C 5.859375 -1.53125 6.773438 -2.398438 7.265625 -3.734375 C 7.753906 -5.066406 8 -7.503906 8 -11.046875 L 8 -49.84375 C 8 -53.4375 7.679688 -55.882812 7.046875 -57.1875 C 6.410156 -58.5 5.222656 -59.359375 3.484375 -59.765625 L 3.484375 -60.890625 L 12 -60.890625 L 50.015625 -11.65625 L 50.015625 -46.359375 C 50.015625 -49.671875 49.78125 -52.238281 49.3125 -54.0625 C 48.851562 -55.882812 48.1875 -57.203125 47.3125 -58.015625 C 46.445312 -58.828125 45.347656 -59.410156 44.015625 -59.765625 L 44.015625 -60.890625 L 54.96875 -60.890625 L 54.96875 -59.765625 C 53.632812 -59.359375 52.722656 -58.5 52.234375 -57.1875 C 51.742188 -55.882812 51.5 -53.4375 51.5 -49.84375 L 51.5 0.703125 Z M 50.359375 0.703125 "/></g></g></g><g fill="#000000" fill-opacity="1"><g transform="translate(285.60406, 71.448146)"><g/></g></g><g fill="#000000" fill-opacity="1"><g transform="translate(306.479972, 71.448146)"><g><path d="M 4.4375 0 L 4.4375 -1.125 C 5.769531 -1.53125 6.679688 -2.398438 7.171875 -3.734375 C 7.671875 -5.066406 7.921875 -7.503906 7.921875 -11.046875 L 7.921875 -49.84375 C 7.921875 -53.4375 7.671875 -55.882812 7.171875 -57.1875 C 6.679688 -58.5 5.769531 -59.359375 4.4375 -59.765625 L 4.4375 -60.890625 L 25.21875 -60.890625 C 31.195312 -60.890625 36.300781 -60.03125 40.53125 -58.3125 C 44.769531 -56.601562 48.222656 -54.328125 50.890625 -51.484375 C 53.554688 -48.648438 55.507812 -45.503906 56.75 -42.046875 C 58 -38.597656 58.625 -35.109375 58.625 -31.578125 C 58.6875 -25.484375 57.425781 -20.054688 54.84375 -15.296875 C 52.257812 -10.546875 48.601562 -6.804688 43.875 -4.078125 C 39.15625 -1.359375 33.601562 0 27.21875 0 Z M 15.046875 -7.65625 C 15.046875 -5.625 15.394531 -4.054688 16.09375 -2.953125 C 16.789062 -1.859375 18.328125 -1.3125 20.703125 -1.3125 L 27.046875 -1.3125 C 34.648438 -1.3125 40.492188 -3.5 44.578125 -7.875 C 48.671875 -12.25 50.71875 -18.988281 50.71875 -28.09375 C 50.71875 -33.894531 49.582031 -39.171875 47.3125 -43.921875 C 45.050781 -48.679688 41.71875 -52.476562 37.3125 -55.3125 C 32.90625 -58.15625 27.457031 -59.578125 20.96875 -59.578125 L 15.046875 -59.578125 Z M 15.046875 -7.65625 "/></g></g></g><g fill="#000000" fill-opacity="1"><g transform="translate(372.152268, 71.448146)"><g><path d="M 4.4375 0 L 4.4375 -1.125 C 5.769531 -1.53125 6.679688 -2.398438 7.171875 -3.734375 C 7.671875 -5.066406 7.921875 -7.503906 7.921875 -11.046875 L 7.921875 -49.84375 C 7.921875 -53.4375 7.671875 -55.882812 7.171875 -57.1875 C 6.679688 -58.5 5.769531 -59.359375 4.4375 -59.765625 L 4.4375 -60.890625 L 18.53125 -60.890625 L 18.53125 -59.765625 C 17.195312 -59.359375 16.28125 -58.5 15.78125 -57.1875 C 15.289062 -55.882812 15.046875 -53.4375 15.046875 -49.84375 L 15.046875 -11.046875 C 15.046875 -7.503906 15.289062 -5.066406 15.78125 -3.734375 C 16.28125 -2.398438 17.195312 -1.53125 18.53125 -1.125 L 18.53125 0 Z M 4.4375 0 "/></g></g></g><g fill="#000000" fill-opacity="1"><g transform="translate(397.725339, 71.448146)"><g><path d="M 36.53125 0.875 C 30.09375 0.875 24.46875 -0.398438 19.65625 -2.953125 C 14.84375 -5.503906 11.113281 -9.082031 8.46875 -13.6875 C 5.832031 -18.300781 4.515625 -23.742188 4.515625 -30.015625 C 4.515625 -34.359375 5.285156 -38.441406 6.828125 -42.265625 C 8.367188 -46.097656 10.546875 -49.445312 13.359375 -52.3125 C 16.171875 -55.1875 19.519531 -57.4375 23.40625 -59.0625 C 27.289062 -60.6875 31.550781 -61.5 36.1875 -61.5 C 38.789062 -61.5 41.351562 -61.28125 43.875 -60.84375 C 46.40625 -60.40625 48.710938 -59.835938 50.796875 -59.140625 C 52.890625 -58.453125 54.484375 -57.726562 55.578125 -56.96875 L 55.9375 -46.703125 L 55.0625 -46.53125 C 54.019531 -49.03125 52.453125 -51.289062 50.359375 -53.3125 C 48.273438 -55.34375 45.828125 -56.953125 43.015625 -58.140625 C 40.203125 -59.335938 37.082031 -59.9375 33.65625 -59.9375 C 29.488281 -59.9375 25.75 -58.992188 22.4375 -57.109375 C 19.132812 -55.222656 16.507812 -52.453125 14.5625 -48.796875 C 12.625 -45.140625 11.625 -40.644531 11.5625 -35.3125 C 11.507812 -31.195312 12.09375 -27.109375 13.3125 -23.046875 C 14.53125 -18.992188 16.34375 -15.285156 18.75 -11.921875 C 21.15625 -8.554688 24.066406 -5.875 27.484375 -3.875 C 30.910156 -1.875 34.828125 -0.875 39.234375 -0.875 C 42.472656 -0.875 45.394531 -1.640625 48 -3.171875 C 50.613281 -4.710938 52.472656 -6.554688 53.578125 -8.703125 L 53.5 -17.578125 C 53.5 -20.296875 53.222656 -22.265625 52.671875 -23.484375 C 52.117188 -24.703125 50.914062 -25.546875 49.0625 -26.015625 L 49.0625 -27.046875 L 60.453125 -27.046875 L 60.453125 -10.703125 C 58.773438 -8.378906 56.613281 -6.347656 53.96875 -4.609375 C 51.332031 -2.867188 48.503906 -1.519531 45.484375 -0.5625 C 42.472656 0.394531 39.488281 0.875 36.53125 0.875 Z M 36.53125 0.875 "/></g></g></g><g fill="#000000" fill-opacity="1"><g transform="translate(464.876365, 71.448146)"><g><path d="M 4.4375 0 L 4.4375 -1.125 C 5.769531 -1.53125 6.679688 -2.398438 7.171875 -3.734375 C 7.671875 -5.066406 7.921875 -7.503906 7.921875 -11.046875 L 7.921875 -49.84375 C 7.921875 -53.4375 7.671875 -55.882812 7.171875 -57.1875 C 6.679688 -58.5 5.769531 -59.359375 4.4375 -59.765625 L 4.4375 -60.890625 L 18.53125 -60.890625 L 18.53125 -59.765625 C 17.195312 -59.359375 16.28125 -58.5 15.78125 -57.1875 C 15.289062 -55.882812 15.046875 -53.4375 15.046875 -49.84375 L 15.046875 -11.046875 C 15.046875 -7.503906 15.289062 -5.066406 15.78125 -3.734375 C 16.28125 -2.398438 17.195312 -1.53125 18.53125 -1.125 L 18.53125 0 Z M 4.4375 0 "/></g></g></g><g fill="#000000" fill-opacity="1"><g transform="translate(490.449436, 71.448146)"><g><path d="M 17.3125 0 L 17.3125 -1.125 C 18.644531 -1.53125 19.554688 -2.398438 20.046875 -3.734375 C 20.546875 -5.066406 20.796875 -7.503906 20.796875 -11.046875 L 20.796875 -59.5 L 16.53125 -59.5 C 12.644531 -59.5 9.6875 -58.890625 7.65625 -57.671875 C 5.625 -56.453125 3.851562 -54.273438 2.34375 -51.140625 L 1.390625 -51.328125 L 1.90625 -60.890625 L 46.703125 -60.890625 L 47.234375 -51.328125 L 46.28125 -51.140625 C 44.820312 -54.273438 43.078125 -56.453125 41.046875 -57.671875 C 39.023438 -58.890625 36.039062 -59.5 32.09375 -59.5 L 28.015625 -59.5 L 28.015625 -11.046875 C 28.015625 -7.503906 28.257812 -5.066406 28.75 -3.734375 C 29.238281 -2.398438 30.148438 -1.53125 31.484375 -1.125 L 31.484375 0 Z M 17.3125 0 "/></g></g></g><g fill="#000000" fill-opacity="1"><g transform="translate(541.769532, 71.448146)"><g><path d="M -1.484375 0 L -1.484375 -1.125 C -0.265625 -1.53125 0.921875 -2.328125 2.078125 -3.515625 C 3.242188 -4.710938 4.492188 -6.960938 5.828125 -10.265625 L 22.96875 -52.71875 C 23.488281 -54.101562 23.429688 -55.460938 22.796875 -56.796875 L 22 -58.625 L 28.53125 -61.578125 L 49.921875 -10.171875 C 51.253906 -6.929688 52.457031 -4.710938 53.53125 -3.515625 C 54.601562 -2.328125 55.609375 -1.53125 56.546875 -1.125 L 56.546875 0 L 43.0625 0 L 43.0625 -1.125 C 44.394531 -1.53125 44.941406 -2.328125 44.703125 -3.515625 C 44.472656 -4.710938 43.664062 -6.929688 42.28125 -10.171875 L 36.96875 -22.96875 L 12.4375 -22.96875 L 7.3125 -10.265625 C 5.101562 -4.753906 5.445312 -1.707031 8.34375 -1.125 L 8.34375 0 Z M 12.953125 -24.265625 L 36.453125 -24.265625 L 24.53125 -52.890625 Z M 12.953125 -24.265625 "/></g></g></g><g fill="#000000" fill-opacity="1"><g transform="translate(600.135283, 71.448146)"><g><path d="M 4.4375 0 L 4.4375 -1.125 C 5.769531 -1.53125 6.679688 -2.398438 7.171875 -3.734375 C 7.671875 -5.066406 7.921875 -7.503906 7.921875 -11.046875 L 7.921875 -49.84375 C 7.921875 -53.4375 7.671875 -55.882812 7.171875 -57.1875 C 6.679688 -58.5 5.769531 -59.359375 4.4375 -59.765625 L 4.4375 -60.890625 L 18.53125 -60.890625 L 18.53125 -59.765625 C 17.195312 -59.359375 16.28125 -58.5 15.78125 -57.1875 C 15.289062 -55.882812 15.046875 -53.4375 15.046875 -49.84375 L 15.046875 -5.3125 C 15.046875 -2.695312 16.351562 -1.390625 18.96875 -1.390625 L 29.3125 -1.390625 C 33.488281 -1.390625 36.691406 -2.007812 38.921875 -3.25 C 41.160156 -4.5 43.03125 -6.75 44.53125 -10 L 45.5 -9.828125 L 44.890625 0 Z M 4.4375 0 "/></g></g></g><g fill="#000000" fill-opacity="1"><g transform="translate(649.97665, 71.448146)"><g/></g></g><g fill="#000000" fill-opacity="1"><g transform="translate(670.852562, 71.448146)"><g><path d="M 4.4375 0 L 4.4375 -1.125 C 5.769531 -1.53125 6.679688 -2.398438 7.171875 -3.734375 C 7.671875 -5.066406 7.921875 -7.503906 7.921875 -11.046875 L 7.921875 -49.84375 C 7.921875 -53.4375 7.671875 -55.882812 7.171875 -57.1875 C 6.679688 -58.5 5.769531 -59.359375 4.4375 -59.765625 L 4.4375 -60.890625 L 18.53125 -60.890625 L 18.53125 -59.765625 C 17.195312 -59.359375 16.28125 -58.5 15.78125 -57.1875 C 15.289062 -55.882812 15.046875 -53.4375 15.046875 -49.84375 L 15.046875 -32.96875 L 48.1875 -32.96875 L 48.1875 -49.84375 C 48.1875 -53.4375 47.9375 -55.882812 47.4375 -57.1875 C 46.945312 -58.5 46.035156 -59.359375 44.703125 -59.765625 L 44.703125 -60.890625 L 58.796875 -60.890625 L 58.796875 -59.765625 C 57.460938 -59.359375 56.550781 -58.5 56.0625 -57.1875 C 55.570312 -55.882812 55.328125 -53.4375 55.328125 -49.84375 L 55.328125 -11.046875 C 55.328125 -7.503906 55.570312 -5.066406 56.0625 -3.734375 C 56.550781 -2.398438 57.460938 -1.53125 58.796875 -1.125 L 58.796875 0 L 44.703125 0 L 44.703125 -1.125 C 46.035156 -1.53125 46.945312 -2.398438 47.4375 -3.734375 C 47.9375 -5.066406 48.1875 -7.503906 48.1875 -11.046875 L 48.1875 -31.578125 L 15.046875 -31.578125 L 15.046875 -11.046875 C 15.046875 -7.503906 15.289062 -5.066406 15.78125 -3.734375 C 16.28125 -2.398438 17.195312 -1.53125 18.53125 -1.125 L 18.53125 0 Z M 4.4375 0 "/></g></g></g><g fill="#000000" fill-opacity="1"><g transform="translate(736.611876, 71.448146)"><g><path d="M 4.4375 0 L 4.4375 -1.125 C 5.769531 -1.53125 6.679688 -2.398438 7.171875 -3.734375 C 7.671875 -5.066406 7.921875 -7.503906 7.921875 -11.046875 L 7.921875 -49.84375 C 7.921875 -53.4375 7.671875 -55.882812 7.171875 -57.1875 C 6.679688 -58.5 5.769531 -59.359375 4.4375 -59.765625 L 4.4375 -60.890625 L 44.890625 -60.890625 L 45.84375 -49.578125 L 44.890625 -49.3125 C 43.378906 -53.144531 41.273438 -55.8125 38.578125 -57.3125 C 35.878906 -58.820312 32.296875 -59.578125 27.828125 -59.578125 L 15.046875 -59.578125 L 15.046875 -33.234375 L 26.1875 -33.234375 C 29.488281 -33.234375 32.050781 -33.445312 33.875 -33.875 C 35.707031 -34.3125 37.039062 -34.976562 37.875 -35.875 C 38.71875 -36.78125 39.316406 -37.867188 39.671875 -39.140625 L 40.703125 -39.140625 L 40.703125 -26.015625 L 39.671875 -26.015625 C 39.316406 -27.347656 38.71875 -28.445312 37.875 -29.3125 C 37.039062 -30.1875 35.707031 -30.835938 33.875 -31.265625 C 32.050781 -31.703125 29.488281 -31.921875 26.1875 -31.921875 L 15.046875 -31.921875 L 15.046875 -5.21875 C 15.046875 -2.613281 16.351562 -1.3125 18.96875 -1.3125 L 30.265625 -1.3125 C 34.441406 -1.3125 37.890625 -2.035156 40.609375 -3.484375 C 43.335938 -4.929688 45.488281 -7.6875 47.0625 -11.75 L 48.015625 -11.5625 L 47.3125 0 Z M 4.4375 0 "/></g></g></g><g fill="#000000" fill-opacity="1"><g transform="translate(790.454505, 71.448146)"><g><path d="M -1.484375 0 L -1.484375 -1.125 C -0.265625 -1.53125 0.921875 -2.328125 2.078125 -3.515625 C 3.242188 -4.710938 4.492188 -6.960938 5.828125 -10.265625 L 22.96875 -52.71875 C 23.488281 -54.101562 23.429688 -55.460938 22.796875 -56.796875 L 22 -58.625 L 28.53125 -61.578125 L 49.921875 -10.171875 C 51.253906 -6.929688 52.457031 -4.710938 53.53125 -3.515625 C 54.601562 -2.328125 55.609375 -1.53125 56.546875 -1.125 L 56.546875 0 L 43.0625 0 L 43.0625 -1.125 C 44.394531 -1.53125 44.941406 -2.328125 44.703125 -3.515625 C 44.472656 -4.710938 43.664062 -6.929688 42.28125 -10.171875 L 36.96875 -22.96875 L 12.4375 -22.96875 L 7.3125 -10.265625 C 5.101562 -4.753906 5.445312 -1.707031 8.34375 -1.125 L 8.34375 0 Z M 12.953125 -24.265625 L 36.453125 -24.265625 L 24.53125 -52.890625 Z M 12.953125 -24.265625 "/></g></g></g><g fill="#000000" fill-opacity="1"><g transform="translate(848.820257, 71.448146)"><g><path d="M 4.4375 0 L 4.4375 -1.125 C 5.769531 -1.53125 6.679688 -2.398438 7.171875 -3.734375 C 7.671875 -5.066406 7.921875 -7.503906 7.921875 -11.046875 L 7.921875 -49.84375 C 7.921875 -53.4375 7.671875 -55.882812 7.171875 -57.1875 C 6.679688 -58.5 5.769531 -59.359375 4.4375 -59.765625 L 4.4375 -60.890625 L 18.53125 -60.890625 L 18.53125 -59.765625 C 17.195312 -59.359375 16.28125 -58.5 15.78125 -57.1875 C 15.289062 -55.882812 15.046875 -53.4375 15.046875 -49.84375 L 15.046875 -5.3125 C 15.046875 -2.695312 16.351562 -1.390625 18.96875 -1.390625 L 29.3125 -1.390625 C 33.488281 -1.390625 36.691406 -2.007812 38.921875 -3.25 C 41.160156 -4.5 43.03125 -6.75 44.53125 -10 L 45.5 -9.828125 L 44.890625 0 Z M 4.4375 0 "/></g></g></g><g fill="#000000" fill-opacity="1"><g transform="translate(898.661623, 71.448146)"><g><path d="M 17.3125 0 L 17.3125 -1.125 C 18.644531 -1.53125 19.554688 -2.398438 20.046875 -3.734375 C 20.546875 -5.066406 20.796875 -7.503906 20.796875 -11.046875 L 20.796875 -59.5 L 16.53125 -59.5 C 12.644531 -59.5 9.6875 -58.890625 7.65625 -57.671875 C 5.625 -56.453125 3.851562 -54.273438 2.34375 -51.140625 L 1.390625 -51.328125 L 1.90625 -60.890625 L 46.703125 -60.890625 L 47.234375 -51.328125 L 46.28125 -51.140625 C 44.820312 -54.273438 43.078125 -56.453125 41.046875 -57.671875 C 39.023438 -58.890625 36.039062 -59.5 32.09375 -59.5 L 28.015625 -59.5 L 28.015625 -11.046875 C 28.015625 -7.503906 28.257812 -5.066406 28.75 -3.734375 C 29.238281 -2.398438 30.148438 -1.53125 31.484375 -1.125 L 31.484375 0 Z M 17.3125 0 "/></g></g></g><g fill="#000000" fill-opacity="1"><g transform="translate(949.981719, 71.448146)"><g><path d="M 4.4375 0 L 4.4375 -1.125 C 5.769531 -1.53125 6.679688 -2.398438 7.171875 -3.734375 C 7.671875 -5.066406 7.921875 -7.503906 7.921875 -11.046875 L 7.921875 -49.84375 C 7.921875 -53.4375 7.671875 -55.882812 7.171875 -57.1875 C 6.679688 -58.5 5.769531 -59.359375 4.4375 -59.765625 L 4.4375 -60.890625 L 18.53125 -60.890625 L 18.53125 -59.765625 C 17.195312 -59.359375 16.28125 -58.5 15.78125 -57.1875 C 15.289062 -55.882812 15.046875 -53.4375 15.046875 -49.84375 L 15.046875 -32.96875 L 48.1875 -32.96875 L 48.1875 -49.84375 C 48.1875 -53.4375 47.9375 -55.882812 47.4375 -57.1875 C 46.945312 -58.5 46.035156 -59.359375 44.703125 -59.765625 L 44.703125 -60.890625 L 58.796875 -60.890625 L 58.796875 -59.765625 C 57.460938 -59.359375 56.550781 -58.5 56.0625 -57.1875 C 55.570312 -55.882812 55.328125 -53.4375 55.328125 -49.84375 L 55.328125 -11.046875 C 55.328125 -7.503906 55.570312 -5.066406 56.0625 -3.734375 C 56.550781 -2.398438 57.460938 -1.53125 58.796875 -1.125 L 58.796875 0 L 44.703125 0 L 44.703125 -1.125 C 46.035156 -1.53125 46.945312 -2.398438 47.4375 -3.734375 C 47.9375 -5.066406 48.1875 -7.503906 48.1875 -11.046875 L 48.1875 -31.578125 L 15.046875 -31.578125 L 15.046875 -11.046875 C 15.046875 -7.503906 15.289062 -5.066406 15.78125 -3.734375 C 16.28125 -2.398438 17.195312 -1.53125 18.53125 -1.125 L 18.53125 0 Z M 4.4375 0 "/></g></g></g></g></g><g transform="matrix(1, 0, 0, 1, 604, 1135)"><g clip-path="url(#5d5f998bfa)"><g fill="#000000" fill-opacity="1"><g transform="translate(1.31587, 27.351096)"><g><path d="M 1.734375 -8.75 L 9.328125 -8.75 L 9.328125 -6.953125 L 1.734375 -6.953125 Z M 1.734375 -8.75 "/></g></g></g><g fill="#000000" fill-opacity="1"><g transform="translate(22.77026, 27.351096)"><g/></g></g><g fill="#000000" fill-opacity="1"><g transform="translate(40.750261, 27.351096)"><g><path d="M 17.140625 0 L 12.5 -6.515625 C 11.976562 -6.453125 11.441406 -6.421875 10.890625 -6.421875 L 5.4375 -6.421875 L 5.4375 0 L 3.296875 0 L 3.296875 -20.265625 L 10.890625 -20.265625 C 13.472656 -20.265625 15.5 -19.644531 16.96875 -18.40625 C 18.4375 -17.175781 19.171875 -15.476562 19.171875 -13.3125 C 19.171875 -11.726562 18.769531 -10.390625 17.96875 -9.296875 C 17.164062 -8.210938 16.019531 -7.429688 14.53125 -6.953125 L 19.484375 0 Z M 10.828125 -8.25 C 12.835938 -8.25 14.375 -8.691406 15.4375 -9.578125 C 16.5 -10.472656 17.03125 -11.71875 17.03125 -13.3125 C 17.03125 -14.957031 16.5 -16.21875 15.4375 -17.09375 C 14.375 -17.976562 12.835938 -18.421875 10.828125 -18.421875 L 5.4375 -18.421875 L 5.4375 -8.25 Z M 10.828125 -8.25 "/></g></g></g><g fill="#000000" fill-opacity="1"><g transform="translate(72.077754, 27.351096)"><g><path d="M 17.625 -1.859375 L 17.625 0 L 3.296875 0 L 3.296875 -20.265625 L 17.203125 -20.265625 L 17.203125 -18.421875 L 5.4375 -18.421875 L 5.4375 -11.203125 L 15.921875 -11.203125 L 15.921875 -9.375 L 5.4375 -9.375 L 5.4375 -1.859375 Z M 17.625 -1.859375 "/></g></g></g><g fill="#000000" fill-opacity="1"><g transform="translate(101.841786, 27.351096)"><g><path d="M 12.109375 0.171875 C 10.097656 0.171875 8.285156 -0.269531 6.671875 -1.15625 C 5.054688 -2.039062 3.789062 -3.269531 2.875 -4.84375 C 1.957031 -6.414062 1.5 -8.179688 1.5 -10.140625 C 1.5 -12.085938 1.957031 -13.847656 2.875 -15.421875 C 3.789062 -16.992188 5.0625 -18.222656 6.6875 -19.109375 C 8.3125 -19.992188 10.125 -20.4375 12.125 -20.4375 C 13.632812 -20.4375 15.023438 -20.1875 16.296875 -19.6875 C 17.578125 -19.1875 18.660156 -18.453125 19.546875 -17.484375 L 18.1875 -16.125 C 16.601562 -17.726562 14.601562 -18.53125 12.1875 -18.53125 C 10.582031 -18.53125 9.125 -18.160156 7.8125 -17.421875 C 6.5 -16.691406 5.472656 -15.6875 4.734375 -14.40625 C 3.992188 -13.132812 3.625 -11.710938 3.625 -10.140625 C 3.625 -8.554688 3.992188 -7.125 4.734375 -5.84375 C 5.472656 -4.570312 6.5 -3.566406 7.8125 -2.828125 C 9.125 -2.097656 10.582031 -1.734375 12.1875 -1.734375 C 14.625 -1.734375 16.625 -2.546875 18.1875 -4.171875 L 19.546875 -2.8125 C 18.660156 -1.84375 17.570312 -1.101562 16.28125 -0.59375 C 15 -0.0820312 13.609375 0.171875 12.109375 0.171875 Z M 12.109375 0.171875 "/></g></g></g><g fill="#000000" fill-opacity="1"><g transform="translate(133.053494, 27.351096)"><g><path d="M 12.15625 0.171875 C 10.15625 0.171875 8.335938 -0.273438 6.703125 -1.171875 C 5.066406 -2.066406 3.789062 -3.296875 2.875 -4.859375 C 1.957031 -6.421875 1.5 -8.179688 1.5 -10.140625 C 1.5 -12.085938 1.957031 -13.84375 2.875 -15.40625 C 3.789062 -16.96875 5.066406 -18.195312 6.703125 -19.09375 C 8.335938 -19.988281 10.15625 -20.4375 12.15625 -20.4375 C 14.164062 -20.4375 15.972656 -19.992188 17.578125 -19.109375 C 19.191406 -18.222656 20.460938 -16.992188 21.390625 -15.421875 C 22.316406 -13.847656 22.78125 -12.085938 22.78125 -10.140625 C 22.78125 -8.179688 22.316406 -6.414062 21.390625 -4.84375 C 20.460938 -3.269531 19.191406 -2.039062 17.578125 -1.15625 C 15.972656 -0.269531 14.164062 0.171875 12.15625 0.171875 Z M 12.15625 -1.734375 C 13.757812 -1.734375 15.207031 -2.09375 16.5 -2.8125 C 17.789062 -3.539062 18.800781 -4.546875 19.53125 -5.828125 C 20.269531 -7.117188 20.640625 -8.554688 20.640625 -10.140625 C 20.640625 -11.710938 20.269531 -13.140625 19.53125 -14.421875 C 18.800781 -15.710938 17.789062 -16.71875 16.5 -17.4375 C 15.207031 -18.164062 13.757812 -18.53125 12.15625 -18.53125 C 10.550781 -18.53125 9.097656 -18.164062 7.796875 -17.4375 C 6.492188 -16.71875 5.472656 -15.710938 4.734375 -14.421875 C 3.992188 -13.140625 3.625 -11.710938 3.625 -10.140625 C 3.625 -8.554688 3.992188 -7.117188 4.734375 -5.828125 C 5.472656 -4.546875 6.492188 -3.539062 7.796875 -2.8125 C 9.097656 -2.09375 10.550781 -1.734375 12.15625 -1.734375 Z M 12.15625 -1.734375 "/></g></g></g><g fill="#000000" fill-opacity="1"><g transform="translate(167.73959, 27.351096)"><g><path d="M 17.140625 0 L 12.5 -6.515625 C 11.976562 -6.453125 11.441406 -6.421875 10.890625 -6.421875 L 5.4375 -6.421875 L 5.4375 0 L 3.296875 0 L 3.296875 -20.265625 L 10.890625 -20.265625 C 13.472656 -20.265625 15.5 -19.644531 16.96875 -18.40625 C 18.4375 -17.175781 19.171875 -15.476562 19.171875 -13.3125 C 19.171875 -11.726562 18.769531 -10.390625 17.96875 -9.296875 C 17.164062 -8.210938 16.019531 -7.429688 14.53125 -6.953125 L 19.484375 0 Z M 10.828125 -8.25 C 12.835938 -8.25 14.375 -8.691406 15.4375 -9.578125 C 16.5 -10.472656 17.03125 -11.71875 17.03125 -13.3125 C 17.03125 -14.957031 16.5 -16.21875 15.4375 -17.09375 C 14.375 -17.976562 12.835938 -18.421875 10.828125 -18.421875 L 5.4375 -18.421875 L 5.4375 -8.25 Z M 10.828125 -8.25 "/></g></g></g><g fill="#000000" fill-opacity="1"><g transform="translate(199.067084, 27.351096)"><g><path d="M 3.296875 -20.265625 L 11.546875 -20.265625 C 13.691406 -20.265625 15.582031 -19.832031 17.21875 -18.96875 C 18.863281 -18.113281 20.140625 -16.921875 21.046875 -15.390625 C 21.953125 -13.859375 22.40625 -12.109375 22.40625 -10.140625 C 22.40625 -8.171875 21.953125 -6.414062 21.046875 -4.875 C 20.140625 -3.34375 18.863281 -2.144531 17.21875 -1.28125 C 15.582031 -0.425781 13.691406 0 11.546875 0 L 3.296875 0 Z M 11.4375 -1.859375 C 13.207031 -1.859375 14.757812 -2.207031 16.09375 -2.90625 C 17.425781 -3.613281 18.457031 -4.585938 19.1875 -5.828125 C 19.925781 -7.078125 20.296875 -8.515625 20.296875 -10.140625 C 20.296875 -11.753906 19.925781 -13.179688 19.1875 -14.421875 C 18.457031 -15.671875 17.425781 -16.648438 16.09375 -17.359375 C 14.757812 -18.066406 13.207031 -18.421875 11.4375 -18.421875 L 5.4375 -18.421875 L 5.4375 -1.859375 Z M 11.4375 -1.859375 "/></g></g></g><g fill="#000000" fill-opacity="1"><g transform="translate(233.376775, 27.351096)"><g><path d="M 8.890625 0.171875 C 7.378906 0.171875 5.929688 -0.0664062 4.546875 -0.546875 C 3.171875 -1.035156 2.109375 -1.675781 1.359375 -2.46875 L 2.203125 -4.109375 C 2.929688 -3.378906 3.90625 -2.785156 5.125 -2.328125 C 6.34375 -1.878906 7.597656 -1.65625 8.890625 -1.65625 C 10.703125 -1.65625 12.0625 -1.984375 12.96875 -2.640625 C 13.875 -3.304688 14.328125 -4.171875 14.328125 -5.234375 C 14.328125 -6.046875 14.082031 -6.691406 13.59375 -7.171875 C 13.101562 -7.660156 12.5 -8.035156 11.78125 -8.296875 C 11.070312 -8.554688 10.078125 -8.84375 8.796875 -9.15625 C 7.273438 -9.539062 6.0625 -9.910156 5.15625 -10.265625 C 4.25 -10.617188 3.472656 -11.160156 2.828125 -11.890625 C 2.179688 -12.628906 1.859375 -13.625 1.859375 -14.875 C 1.859375 -15.90625 2.125 -16.835938 2.65625 -17.671875 C 3.195312 -18.515625 4.023438 -19.1875 5.140625 -19.6875 C 6.265625 -20.1875 7.660156 -20.4375 9.328125 -20.4375 C 10.484375 -20.4375 11.613281 -20.273438 12.71875 -19.953125 C 13.832031 -19.640625 14.796875 -19.203125 15.609375 -18.640625 L 14.875 -16.9375 C 14.03125 -17.5 13.125 -17.914062 12.15625 -18.1875 C 11.195312 -18.46875 10.253906 -18.609375 9.328125 -18.609375 C 7.546875 -18.609375 6.207031 -18.265625 5.3125 -17.578125 C 4.414062 -16.898438 3.96875 -16.019531 3.96875 -14.9375 C 3.96875 -14.125 4.210938 -13.472656 4.703125 -12.984375 C 5.191406 -12.492188 5.804688 -12.117188 6.546875 -11.859375 C 7.296875 -11.597656 8.296875 -11.3125 9.546875 -11 C 11.035156 -10.632812 12.238281 -10.269531 13.15625 -9.90625 C 14.070312 -9.550781 14.847656 -9.007812 15.484375 -8.28125 C 16.128906 -7.5625 16.453125 -6.585938 16.453125 -5.359375 C 16.453125 -4.335938 16.175781 -3.40625 15.625 -2.5625 C 15.070312 -1.71875 14.222656 -1.050781 13.078125 -0.5625 C 11.941406 -0.0703125 10.546875 0.171875 8.890625 0.171875 Z M 8.890625 0.171875 "/></g></g></g><g fill="#000000" fill-opacity="1"><g transform="translate(261.57731, 27.351096)"><g/></g></g><g fill="#000000" fill-opacity="1"><g transform="translate(279.55731, 27.351096)"><g><path d="M 1.734375 -8.75 L 9.328125 -8.75 L 9.328125 -6.953125 L 1.734375 -6.953125 Z M 1.734375 -8.75 "/></g></g></g></g></g></svg>